<svg width="48" height="48" viewBox="0 0 48 48" fill="none" xmlns="http://www.w3.org/2000/svg">
<g clip-path="url(#clip0_1_71)">
<path d="M24 -0.000671387C10.7453 -0.000671387 0 10.7446 0 23.9993C0 35.2544 7.74912 44.6989 18.2026 47.2928V31.3337H13.2538V23.9993H18.2026V20.839C18.2026 12.6704 21.8995 8.88413 29.9194 8.88413C31.44 8.88413 34.0637 9.18269 35.137 9.48029V16.1283C34.5706 16.0688 33.5866 16.039 32.3645 16.039C28.4294 16.039 26.9088 17.5299 26.9088 21.4054V23.9993H34.7482L33.4013 31.3337H26.9088V47.8237C38.7926 46.3885 48.001 36.27 48.001 23.9993C48 10.7446 37.2547 -0.000671387 24 -0.000671387Z" fill="black"/>
</g>
<defs>
<clipPath id="clip0_1_71">
<rect width="48" height="48" fill="white" transform="translate(0 -0.000671387)"/>
</clipPath>
</defs>
</svg>
