<svg width="48" height="48" viewBox="0 0 48 48" fill="none" xmlns="http://www.w3.org/2000/svg">
<g clip-path="url(#clip0_1_65)">
<path d="M24 4.3212C30.4125 4.3212 31.1719 4.34933 33.6938 4.46183C36.0375 4.56495 37.3031 4.9587 38.1469 5.28683C39.2625 5.71808 40.0688 6.24308 40.9031 7.07745C41.7469 7.9212 42.2625 8.71808 42.6938 9.8337C43.0219 10.6775 43.4156 11.9525 43.5188 14.2868C43.6313 16.8181 43.6594 17.5775 43.6594 23.9806C43.6594 30.3931 43.6313 31.1525 43.5188 33.6743C43.4156 36.0181 43.0219 37.2837 42.6938 38.1275C42.2625 39.2431 41.7375 40.0493 40.9031 40.8837C40.0594 41.7275 39.2625 42.2431 38.1469 42.6743C37.3031 43.0025 36.0281 43.3962 33.6938 43.4993C31.1625 43.6118 30.4031 43.64 24 43.64C17.5875 43.64 16.8281 43.6118 14.3063 43.4993C11.9625 43.3962 10.6969 43.0025 9.85313 42.6743C8.7375 42.2431 7.93125 41.7181 7.09688 40.8837C6.25313 40.04 5.7375 39.2431 5.30625 38.1275C4.97813 37.2837 4.58438 36.0087 4.48125 33.6743C4.36875 31.1431 4.34063 30.3837 4.34063 23.9806C4.34063 17.5681 4.36875 16.8087 4.48125 14.2868C4.58438 11.9431 4.97813 10.6775 5.30625 9.8337C5.7375 8.71808 6.2625 7.91183 7.09688 7.07745C7.94063 6.2337 8.7375 5.71808 9.85313 5.28683C10.6969 4.9587 11.9719 4.56495 14.3063 4.46183C16.8281 4.34933 17.5875 4.3212 24 4.3212ZM24 -0.000671387C17.4844 -0.000671387 16.6688 0.0274536 14.1094 0.139954C11.5594 0.252454 9.80625 0.664953 8.2875 1.25558C6.70313 1.87433 5.3625 2.68995 4.03125 4.03058C2.69063 5.36183 1.875 6.70245 1.25625 8.27745C0.665625 9.80558 0.253125 11.5493 0.140625 14.0993C0.028125 16.6681 0 17.4837 0 23.9993C0 30.515 0.028125 31.3306 0.140625 33.89C0.253125 36.44 0.665625 38.1931 1.25625 39.7118C1.875 41.2962 2.69063 42.6368 4.03125 43.9681C5.3625 45.2993 6.70313 46.1243 8.27813 46.7337C9.80625 47.3243 11.55 47.7368 14.1 47.8493C16.6594 47.9618 17.475 47.99 23.9906 47.99C30.5063 47.99 31.3219 47.9618 33.8813 47.8493C36.4313 47.7368 38.1844 47.3243 39.7031 46.7337C41.2781 46.1243 42.6188 45.2993 43.95 43.9681C45.2813 42.6368 46.1063 41.2962 46.7156 39.7212C47.3063 38.1931 47.7188 36.4493 47.8313 33.8993C47.9438 31.34 47.9719 30.5243 47.9719 24.0087C47.9719 17.4931 47.9438 16.6775 47.8313 14.1181C47.7188 11.5681 47.3063 9.81495 46.7156 8.2962C46.125 6.70245 45.3094 5.36183 43.9688 4.03058C42.6375 2.69933 41.2969 1.87433 39.7219 1.26495C38.1938 0.674329 36.45 0.261829 33.9 0.149329C31.3313 0.0274536 30.5156 -0.000671387 24 -0.000671387Z" fill="black"/>
<path d="M24 11.6712C17.1938 11.6712 11.6719 17.1931 11.6719 23.9993C11.6719 30.8056 17.1938 36.3275 24 36.3275C30.8062 36.3275 36.3281 30.8056 36.3281 23.9993C36.3281 17.1931 30.8062 11.6712 24 11.6712ZM24 31.9962C19.5844 31.9962 16.0031 28.415 16.0031 23.9993C16.0031 19.5837 19.5844 16.0025 24 16.0025C28.4156 16.0025 31.9969 19.5837 31.9969 23.9993C31.9969 28.415 28.4156 31.9962 24 31.9962Z" fill="black"/>
<path d="M39.6937 11.1836C39.6937 12.7774 38.4 14.0617 36.8156 14.0617C35.2219 14.0617 33.9375 12.768 33.9375 11.1836C33.9375 9.58986 35.2313 8.30548 36.8156 8.30548C38.4 8.30548 39.6937 9.59923 39.6937 11.1836Z" fill="black"/>
</g>
<defs>
<clipPath id="clip0_1_65">
<rect width="48" height="48" fill="white" transform="translate(0 -0.000671387)"/>
</clipPath>
</defs>
</svg>
