<svg width="48" height="48" viewBox="0 0 48 48" fill="none" xmlns="http://www.w3.org/2000/svg">
<path d="M47.5219 14.3994C47.5219 14.3994 47.0531 11.0901 45.6094 9.63693C43.7812 7.72443 41.7375 7.71505 40.8 7.60255C34.0875 7.11505 24.0094 7.11505 24.0094 7.11505H23.9906C23.9906 7.11505 13.9125 7.11505 7.2 7.60255C6.2625 7.71505 4.21875 7.72443 2.39062 9.63693C0.946875 11.0901 0.4875 14.3994 0.4875 14.3994C0.4875 14.3994 0 18.2901 0 22.1713V25.8088C0 29.69 0.478125 33.5807 0.478125 33.5807C0.478125 33.5807 0.946875 36.8901 2.38125 38.3432C4.20937 40.2557 6.60938 40.1901 7.67813 40.3963C11.5219 40.7619 24 40.8744 24 40.8744C24 40.8744 34.0875 40.8557 40.8 40.3776C41.7375 40.2651 43.7812 40.2557 45.6094 38.3432C47.0531 36.8901 47.5219 33.5807 47.5219 33.5807C47.5219 33.5807 48 29.6994 48 25.8088V22.1713C48 18.2901 47.5219 14.3994 47.5219 14.3994ZM19.0406 30.2244V16.7338L32.0062 23.5026L19.0406 30.2244Z" fill="black"/>
</svg>
